<mxfile host="app.diagrams.net" modified="2020-12-25T22:14:38.840Z" agent="5.0 (X11; Linux x86_64) AppleWebKit/537.36 (KHTML, like Gecko) Chrome/87.0.4280.88 Safari/537.36" etag="cMKj3oTYL1y7d-tUv1dZ" version="14.1.2" type="github">
  <diagram id="0jPNSS02s-Yy2Dnf4Rgp" name="Page-1">
    <mxGraphModel dx="1185" dy="646" grid="1" gridSize="10" guides="1" tooltips="1" connect="1" arrows="1" fold="1" page="1" pageScale="1" pageWidth="850" pageHeight="1100" math="0" shadow="0">
      <root>
        <mxCell id="0" />
        <mxCell id="1" parent="0" />
        <mxCell id="DyA_7QYeF1qoG6apN3V6-14" value="Devchat&lt;br&gt;&amp;nbsp;- Postgres" style="shape=cylinder3;whiteSpace=wrap;html=1;boundedLbl=1;backgroundOutline=1;size=15;align=center;" vertex="1" parent="1">
          <mxGeometry x="395" y="50" width="60" height="80" as="geometry" />
        </mxCell>
        <mxCell id="DyA_7QYeF1qoG6apN3V6-50" value="" style="group;" vertex="1" connectable="0" parent="1">
          <mxGeometry x="70" y="250" width="180" height="290" as="geometry" />
        </mxCell>
        <mxCell id="DyA_7QYeF1qoG6apN3V6-1" value="Users" style="shape=table;startSize=30;container=1;collapsible=1;childLayout=tableLayout;fixedRows=1;rowLines=0;fontStyle=1;align=center;resizeLast=1;" vertex="1" parent="DyA_7QYeF1qoG6apN3V6-50">
          <mxGeometry width="180" height="270" as="geometry" />
        </mxCell>
        <mxCell id="DyA_7QYeF1qoG6apN3V6-2" value="" style="shape=partialRectangle;collapsible=0;dropTarget=0;pointerEvents=0;top=0;left=0;bottom=1;right=0;points=[[0,0.5],[1,0.5]];portConstraint=eastwest;fillColor=none;" vertex="1" parent="DyA_7QYeF1qoG6apN3V6-1">
          <mxGeometry y="30" width="180" height="30" as="geometry" />
        </mxCell>
        <mxCell id="DyA_7QYeF1qoG6apN3V6-3" value="PK" style="shape=partialRectangle;connectable=0;top=0;left=0;bottom=0;right=0;fontStyle=1;overflow=hidden;" vertex="1" parent="DyA_7QYeF1qoG6apN3V6-2">
          <mxGeometry width="30" height="30" as="geometry" />
        </mxCell>
        <mxCell id="DyA_7QYeF1qoG6apN3V6-4" value="ID (auto increment)" style="shape=partialRectangle;connectable=0;top=0;left=0;bottom=0;right=0;align=left;spacingLeft=6;fontStyle=5;overflow=hidden;" vertex="1" parent="DyA_7QYeF1qoG6apN3V6-2">
          <mxGeometry x="30" width="150" height="30" as="geometry" />
        </mxCell>
        <mxCell id="DyA_7QYeF1qoG6apN3V6-5" value="" style="shape=partialRectangle;collapsible=0;dropTarget=0;pointerEvents=0;top=0;left=0;bottom=0;right=0;points=[[0,0.5],[1,0.5]];portConstraint=eastwest;fillColor=none;" vertex="1" parent="DyA_7QYeF1qoG6apN3V6-1">
          <mxGeometry y="60" width="180" height="30" as="geometry" />
        </mxCell>
        <mxCell id="DyA_7QYeF1qoG6apN3V6-6" value="" style="shape=partialRectangle;connectable=0;top=0;left=0;bottom=0;right=0;editable=1;overflow=hidden;fillColor=none;" vertex="1" parent="DyA_7QYeF1qoG6apN3V6-5">
          <mxGeometry width="30" height="30" as="geometry" />
        </mxCell>
        <mxCell id="DyA_7QYeF1qoG6apN3V6-7" value="name (varchar)" style="shape=partialRectangle;connectable=0;top=0;left=0;bottom=0;right=0;align=left;spacingLeft=6;overflow=hidden;" vertex="1" parent="DyA_7QYeF1qoG6apN3V6-5">
          <mxGeometry x="30" width="150" height="30" as="geometry" />
        </mxCell>
        <mxCell id="DyA_7QYeF1qoG6apN3V6-8" value="" style="shape=partialRectangle;collapsible=0;dropTarget=0;pointerEvents=0;top=0;left=0;bottom=0;right=0;points=[[0,0.5],[1,0.5]];portConstraint=eastwest;fillColor=none;" vertex="1" parent="DyA_7QYeF1qoG6apN3V6-1">
          <mxGeometry y="90" width="180" height="30" as="geometry" />
        </mxCell>
        <mxCell id="DyA_7QYeF1qoG6apN3V6-9" value="" style="shape=partialRectangle;connectable=0;top=0;left=0;bottom=0;right=0;editable=1;overflow=hidden;fillColor=none;" vertex="1" parent="DyA_7QYeF1qoG6apN3V6-8">
          <mxGeometry width="30" height="30" as="geometry" />
        </mxCell>
        <mxCell id="DyA_7QYeF1qoG6apN3V6-10" value="email (varchar)" style="shape=partialRectangle;connectable=0;top=0;left=0;bottom=0;right=0;align=left;spacingLeft=6;overflow=hidden;" vertex="1" parent="DyA_7QYeF1qoG6apN3V6-8">
          <mxGeometry x="30" width="150" height="30" as="geometry" />
        </mxCell>
        <mxCell id="DyA_7QYeF1qoG6apN3V6-11" value="" style="shape=partialRectangle;collapsible=0;dropTarget=0;pointerEvents=0;top=0;left=0;bottom=0;right=0;points=[[0,0.5],[1,0.5]];portConstraint=eastwest;fillColor=none;" vertex="1" parent="DyA_7QYeF1qoG6apN3V6-1">
          <mxGeometry y="120" width="180" height="30" as="geometry" />
        </mxCell>
        <mxCell id="DyA_7QYeF1qoG6apN3V6-12" value="" style="shape=partialRectangle;connectable=0;top=0;left=0;bottom=0;right=0;editable=1;overflow=hidden;fillColor=none;" vertex="1" parent="DyA_7QYeF1qoG6apN3V6-11">
          <mxGeometry width="30" height="30" as="geometry" />
        </mxCell>
        <mxCell id="DyA_7QYeF1qoG6apN3V6-13" value="password (varchar)" style="shape=partialRectangle;connectable=0;top=0;left=0;bottom=0;right=0;align=left;spacingLeft=6;overflow=hidden;" vertex="1" parent="DyA_7QYeF1qoG6apN3V6-11">
          <mxGeometry x="30" width="150" height="30" as="geometry" />
        </mxCell>
        <mxCell id="DyA_7QYeF1qoG6apN3V6-34" value="profile_status (varchar)" style="shape=partialRectangle;connectable=0;top=0;left=0;bottom=0;right=0;align=left;spacingLeft=6;overflow=hidden;" vertex="1" parent="DyA_7QYeF1qoG6apN3V6-50">
          <mxGeometry x="30" y="150" width="150" height="30" as="geometry" />
        </mxCell>
        <mxCell id="DyA_7QYeF1qoG6apN3V6-35" value="profile_image (varchar)" style="shape=partialRectangle;connectable=0;top=0;left=0;bottom=0;right=0;align=left;spacingLeft=6;overflow=hidden;" vertex="1" parent="DyA_7QYeF1qoG6apN3V6-50">
          <mxGeometry x="30" y="180" width="150" height="30" as="geometry" />
        </mxCell>
        <mxCell id="DyA_7QYeF1qoG6apN3V6-88" value="created_at (timestamp)" style="shape=partialRectangle;connectable=0;top=0;left=0;bottom=0;right=0;align=left;spacingLeft=6;overflow=hidden;" vertex="1" parent="DyA_7QYeF1qoG6apN3V6-50">
          <mxGeometry x="30" y="210" width="150" height="30" as="geometry" />
        </mxCell>
        <mxCell id="DyA_7QYeF1qoG6apN3V6-89" value="updated_at (timestamp)" style="shape=partialRectangle;connectable=0;top=0;left=0;bottom=0;right=0;align=left;spacingLeft=6;overflow=hidden;" vertex="1" parent="DyA_7QYeF1qoG6apN3V6-50">
          <mxGeometry x="30" y="240" width="150" height="30" as="geometry" />
        </mxCell>
        <mxCell id="DyA_7QYeF1qoG6apN3V6-95" value="" style="group;" vertex="1" connectable="0" parent="1">
          <mxGeometry x="185" y="620" width="180" height="210" as="geometry" />
        </mxCell>
        <mxCell id="DyA_7QYeF1qoG6apN3V6-96" value="" style="group;" vertex="1" connectable="0" parent="DyA_7QYeF1qoG6apN3V6-95">
          <mxGeometry width="180" height="210" as="geometry" />
        </mxCell>
        <mxCell id="DyA_7QYeF1qoG6apN3V6-117" value="" style="group;" vertex="1" connectable="0" parent="DyA_7QYeF1qoG6apN3V6-96">
          <mxGeometry x="-75" y="40" width="180" height="200" as="geometry" />
        </mxCell>
        <mxCell id="DyA_7QYeF1qoG6apN3V6-97" value="messages" style="shape=table;startSize=30;container=1;collapsible=1;childLayout=tableLayout;fixedRows=1;rowLines=0;fontStyle=1;align=center;resizeLast=1;" vertex="1" parent="DyA_7QYeF1qoG6apN3V6-117">
          <mxGeometry width="180" height="180" as="geometry" />
        </mxCell>
        <mxCell id="DyA_7QYeF1qoG6apN3V6-98" value="" style="shape=partialRectangle;collapsible=0;dropTarget=0;pointerEvents=0;top=0;left=0;bottom=1;right=0;points=[[0,0.5],[1,0.5]];portConstraint=eastwest;fillColor=none;" vertex="1" parent="DyA_7QYeF1qoG6apN3V6-97">
          <mxGeometry y="30" width="180" height="30" as="geometry" />
        </mxCell>
        <mxCell id="DyA_7QYeF1qoG6apN3V6-99" value="PK" style="shape=partialRectangle;connectable=0;top=0;left=0;bottom=0;right=0;fontStyle=1;overflow=hidden;" vertex="1" parent="DyA_7QYeF1qoG6apN3V6-98">
          <mxGeometry width="30" height="30" as="geometry" />
        </mxCell>
        <mxCell id="DyA_7QYeF1qoG6apN3V6-100" value="ID (auto increment)" style="shape=partialRectangle;connectable=0;top=0;left=0;bottom=0;right=0;align=left;spacingLeft=6;fontStyle=5;overflow=hidden;" vertex="1" parent="DyA_7QYeF1qoG6apN3V6-98">
          <mxGeometry x="30" width="150" height="30" as="geometry" />
        </mxCell>
        <mxCell id="DyA_7QYeF1qoG6apN3V6-101" value="" style="shape=partialRectangle;collapsible=0;dropTarget=0;pointerEvents=0;top=0;left=0;bottom=0;right=0;points=[[0,0.5],[1,0.5]];portConstraint=eastwest;fillColor=none;" vertex="1" parent="DyA_7QYeF1qoG6apN3V6-97">
          <mxGeometry y="60" width="180" height="30" as="geometry" />
        </mxCell>
        <mxCell id="DyA_7QYeF1qoG6apN3V6-102" value="" style="shape=partialRectangle;connectable=0;top=0;left=0;bottom=0;right=0;editable=1;overflow=hidden;fillColor=none;" vertex="1" parent="DyA_7QYeF1qoG6apN3V6-101">
          <mxGeometry width="30" height="30" as="geometry" />
        </mxCell>
        <mxCell id="DyA_7QYeF1qoG6apN3V6-103" value="body (varchar(500))" style="shape=partialRectangle;connectable=0;top=0;left=0;bottom=0;right=0;align=left;spacingLeft=6;overflow=hidden;" vertex="1" parent="DyA_7QYeF1qoG6apN3V6-101">
          <mxGeometry x="30" width="150" height="30" as="geometry" />
        </mxCell>
        <mxCell id="DyA_7QYeF1qoG6apN3V6-104" value="" style="shape=partialRectangle;collapsible=0;dropTarget=0;pointerEvents=0;top=0;left=0;bottom=0;right=0;points=[[0,0.5],[1,0.5]];portConstraint=eastwest;fillColor=none;" vertex="1" parent="DyA_7QYeF1qoG6apN3V6-97">
          <mxGeometry y="90" width="180" height="30" as="geometry" />
        </mxCell>
        <mxCell id="DyA_7QYeF1qoG6apN3V6-105" value="" style="shape=partialRectangle;connectable=0;top=0;left=0;bottom=0;right=0;editable=1;overflow=hidden;fillColor=none;" vertex="1" parent="DyA_7QYeF1qoG6apN3V6-104">
          <mxGeometry width="30" height="30" as="geometry" />
        </mxCell>
        <mxCell id="DyA_7QYeF1qoG6apN3V6-106" value="" style="shape=partialRectangle;connectable=0;top=0;left=0;bottom=0;right=0;align=left;spacingLeft=6;overflow=hidden;fillColor=none;" vertex="1" parent="DyA_7QYeF1qoG6apN3V6-104">
          <mxGeometry x="30" width="150" height="30" as="geometry" />
        </mxCell>
        <mxCell id="DyA_7QYeF1qoG6apN3V6-107" value="" style="shape=partialRectangle;collapsible=0;dropTarget=0;pointerEvents=0;top=0;left=0;bottom=0;right=0;points=[[0,0.5],[1,0.5]];portConstraint=eastwest;fillColor=none;" vertex="1" parent="DyA_7QYeF1qoG6apN3V6-97">
          <mxGeometry y="120" width="180" height="30" as="geometry" />
        </mxCell>
        <mxCell id="DyA_7QYeF1qoG6apN3V6-108" value="" style="shape=partialRectangle;connectable=0;top=0;left=0;bottom=0;right=0;editable=1;overflow=hidden;fillColor=none;" vertex="1" parent="DyA_7QYeF1qoG6apN3V6-107">
          <mxGeometry width="30" height="30" as="geometry" />
        </mxCell>
        <mxCell id="DyA_7QYeF1qoG6apN3V6-109" value="" style="shape=partialRectangle;connectable=0;top=0;left=0;bottom=0;right=0;align=left;spacingLeft=6;overflow=hidden;fillColor=none;" vertex="1" parent="DyA_7QYeF1qoG6apN3V6-107">
          <mxGeometry x="30" width="150" height="30" as="geometry" />
        </mxCell>
        <mxCell id="DyA_7QYeF1qoG6apN3V6-115" value="type (enum)" style="shape=partialRectangle;connectable=0;top=0;left=0;bottom=0;right=0;align=left;spacingLeft=6;overflow=hidden;" vertex="1" parent="DyA_7QYeF1qoG6apN3V6-117">
          <mxGeometry x="30" y="90" width="150" height="30" as="geometry" />
        </mxCell>
        <mxCell id="DyA_7QYeF1qoG6apN3V6-116" value="updated_at (timestamp)" style="shape=partialRectangle;connectable=0;top=0;left=0;bottom=0;right=0;align=left;spacingLeft=6;overflow=hidden;" vertex="1" parent="DyA_7QYeF1qoG6apN3V6-117">
          <mxGeometry x="30" y="150" width="150" height="30" as="geometry" />
        </mxCell>
        <mxCell id="DyA_7QYeF1qoG6apN3V6-179" value="created_at (timestamp)" style="shape=partialRectangle;connectable=0;top=0;left=0;bottom=0;right=0;align=left;spacingLeft=6;overflow=hidden;" vertex="1" parent="DyA_7QYeF1qoG6apN3V6-117">
          <mxGeometry x="30" y="120" width="150" height="30" as="geometry" />
        </mxCell>
        <mxCell id="DyA_7QYeF1qoG6apN3V6-118" value="" style="group;" vertex="1" connectable="0" parent="1">
          <mxGeometry x="515" y="670" width="180" height="200" as="geometry" />
        </mxCell>
        <mxCell id="DyA_7QYeF1qoG6apN3V6-119" value="messages_groups" style="shape=table;startSize=30;container=1;collapsible=1;childLayout=tableLayout;fixedRows=1;rowLines=0;fontStyle=1;align=center;resizeLast=1;" vertex="1" parent="DyA_7QYeF1qoG6apN3V6-118">
          <mxGeometry width="180" height="180" as="geometry" />
        </mxCell>
        <mxCell id="DyA_7QYeF1qoG6apN3V6-120" value="" style="shape=partialRectangle;collapsible=0;dropTarget=0;pointerEvents=0;top=0;left=0;bottom=1;right=0;points=[[0,0.5],[1,0.5]];portConstraint=eastwest;fillColor=none;" vertex="1" parent="DyA_7QYeF1qoG6apN3V6-119">
          <mxGeometry y="30" width="180" height="30" as="geometry" />
        </mxCell>
        <mxCell id="DyA_7QYeF1qoG6apN3V6-121" value="PK" style="shape=partialRectangle;connectable=0;top=0;left=0;bottom=0;right=0;fontStyle=1;overflow=hidden;" vertex="1" parent="DyA_7QYeF1qoG6apN3V6-120">
          <mxGeometry width="30" height="30" as="geometry" />
        </mxCell>
        <mxCell id="DyA_7QYeF1qoG6apN3V6-122" value="ID (auto increment)" style="shape=partialRectangle;connectable=0;top=0;left=0;bottom=0;right=0;align=left;spacingLeft=6;fontStyle=5;overflow=hidden;" vertex="1" parent="DyA_7QYeF1qoG6apN3V6-120">
          <mxGeometry x="30" width="150" height="30" as="geometry" />
        </mxCell>
        <mxCell id="DyA_7QYeF1qoG6apN3V6-123" value="" style="shape=partialRectangle;collapsible=0;dropTarget=0;pointerEvents=0;top=0;left=0;bottom=0;right=0;points=[[0,0.5],[1,0.5]];portConstraint=eastwest;fillColor=none;" vertex="1" parent="DyA_7QYeF1qoG6apN3V6-119">
          <mxGeometry y="60" width="180" height="30" as="geometry" />
        </mxCell>
        <mxCell id="DyA_7QYeF1qoG6apN3V6-124" value="" style="shape=partialRectangle;connectable=0;top=0;left=0;bottom=0;right=0;editable=1;overflow=hidden;fillColor=none;" vertex="1" parent="DyA_7QYeF1qoG6apN3V6-123">
          <mxGeometry width="30" height="30" as="geometry" />
        </mxCell>
        <mxCell id="DyA_7QYeF1qoG6apN3V6-125" value="user_sender_id" style="shape=partialRectangle;connectable=0;top=0;left=0;bottom=0;right=0;align=left;spacingLeft=6;overflow=hidden;" vertex="1" parent="DyA_7QYeF1qoG6apN3V6-123">
          <mxGeometry x="30" width="150" height="30" as="geometry" />
        </mxCell>
        <mxCell id="DyA_7QYeF1qoG6apN3V6-126" value="" style="shape=partialRectangle;collapsible=0;dropTarget=0;pointerEvents=0;top=0;left=0;bottom=0;right=0;points=[[0,0.5],[1,0.5]];portConstraint=eastwest;fillColor=none;" vertex="1" parent="DyA_7QYeF1qoG6apN3V6-119">
          <mxGeometry y="90" width="180" height="30" as="geometry" />
        </mxCell>
        <mxCell id="DyA_7QYeF1qoG6apN3V6-127" value="" style="shape=partialRectangle;connectable=0;top=0;left=0;bottom=0;right=0;editable=1;overflow=hidden;fillColor=none;" vertex="1" parent="DyA_7QYeF1qoG6apN3V6-126">
          <mxGeometry width="30" height="30" as="geometry" />
        </mxCell>
        <mxCell id="DyA_7QYeF1qoG6apN3V6-128" value="" style="shape=partialRectangle;connectable=0;top=0;left=0;bottom=0;right=0;align=left;spacingLeft=6;overflow=hidden;fillColor=none;" vertex="1" parent="DyA_7QYeF1qoG6apN3V6-126">
          <mxGeometry x="30" width="150" height="30" as="geometry" />
        </mxCell>
        <mxCell id="DyA_7QYeF1qoG6apN3V6-129" value="" style="shape=partialRectangle;collapsible=0;dropTarget=0;pointerEvents=0;top=0;left=0;bottom=0;right=0;points=[[0,0.5],[1,0.5]];portConstraint=eastwest;fillColor=none;" vertex="1" parent="DyA_7QYeF1qoG6apN3V6-119">
          <mxGeometry y="120" width="180" height="30" as="geometry" />
        </mxCell>
        <mxCell id="DyA_7QYeF1qoG6apN3V6-130" value="" style="shape=partialRectangle;connectable=0;top=0;left=0;bottom=0;right=0;editable=1;overflow=hidden;fillColor=none;" vertex="1" parent="DyA_7QYeF1qoG6apN3V6-129">
          <mxGeometry width="30" height="30" as="geometry" />
        </mxCell>
        <mxCell id="DyA_7QYeF1qoG6apN3V6-131" value="" style="shape=partialRectangle;connectable=0;top=0;left=0;bottom=0;right=0;align=left;spacingLeft=6;overflow=hidden;fillColor=none;" vertex="1" parent="DyA_7QYeF1qoG6apN3V6-129">
          <mxGeometry x="30" width="150" height="30" as="geometry" />
        </mxCell>
        <mxCell id="DyA_7QYeF1qoG6apN3V6-132" value="group_id" style="shape=partialRectangle;connectable=0;top=0;left=0;bottom=0;right=0;align=left;spacingLeft=6;overflow=hidden;" vertex="1" parent="DyA_7QYeF1qoG6apN3V6-118">
          <mxGeometry x="30" y="90" width="150" height="30" as="geometry" />
        </mxCell>
        <mxCell id="DyA_7QYeF1qoG6apN3V6-133" value="message_id" style="shape=partialRectangle;connectable=0;top=0;left=0;bottom=0;right=0;align=left;spacingLeft=6;overflow=hidden;" vertex="1" parent="DyA_7QYeF1qoG6apN3V6-118">
          <mxGeometry x="30" y="120" width="150" height="30" as="geometry" />
        </mxCell>
        <mxCell id="DyA_7QYeF1qoG6apN3V6-134" value="send_date (timestamp)" style="shape=partialRectangle;connectable=0;top=0;left=0;bottom=0;right=0;align=left;spacingLeft=6;overflow=hidden;" vertex="1" parent="DyA_7QYeF1qoG6apN3V6-118">
          <mxGeometry x="30" y="150" width="150" height="30" as="geometry" />
        </mxCell>
        <mxCell id="DyA_7QYeF1qoG6apN3V6-135" value="FK" style="shape=partialRectangle;connectable=0;top=0;left=0;bottom=0;right=0;fontStyle=1;overflow=hidden;" vertex="1" parent="DyA_7QYeF1qoG6apN3V6-118">
          <mxGeometry y="60" width="30" height="30" as="geometry" />
        </mxCell>
        <mxCell id="DyA_7QYeF1qoG6apN3V6-137" value="FK" style="shape=partialRectangle;connectable=0;top=0;left=0;bottom=0;right=0;fontStyle=1;overflow=hidden;" vertex="1" parent="DyA_7QYeF1qoG6apN3V6-118">
          <mxGeometry y="90" width="30" height="30" as="geometry" />
        </mxCell>
        <mxCell id="DyA_7QYeF1qoG6apN3V6-138" value="FK" style="shape=partialRectangle;connectable=0;top=0;left=0;bottom=0;right=0;fontStyle=1;overflow=hidden;" vertex="1" parent="DyA_7QYeF1qoG6apN3V6-118">
          <mxGeometry y="120" width="30" height="30" as="geometry" />
        </mxCell>
        <mxCell id="DyA_7QYeF1qoG6apN3V6-139" value="" style="group;" vertex="1" connectable="0" parent="1">
          <mxGeometry x="310" y="880" width="180" height="200" as="geometry" />
        </mxCell>
        <mxCell id="DyA_7QYeF1qoG6apN3V6-140" value="uploads" style="shape=table;startSize=30;container=1;collapsible=1;childLayout=tableLayout;fixedRows=1;rowLines=0;fontStyle=1;align=center;resizeLast=1;" vertex="1" parent="DyA_7QYeF1qoG6apN3V6-139">
          <mxGeometry width="180" height="180" as="geometry" />
        </mxCell>
        <mxCell id="DyA_7QYeF1qoG6apN3V6-141" value="" style="shape=partialRectangle;collapsible=0;dropTarget=0;pointerEvents=0;top=0;left=0;bottom=1;right=0;points=[[0,0.5],[1,0.5]];portConstraint=eastwest;fillColor=none;" vertex="1" parent="DyA_7QYeF1qoG6apN3V6-140">
          <mxGeometry y="30" width="180" height="30" as="geometry" />
        </mxCell>
        <mxCell id="DyA_7QYeF1qoG6apN3V6-142" value="PK" style="shape=partialRectangle;connectable=0;top=0;left=0;bottom=0;right=0;fontStyle=1;overflow=hidden;" vertex="1" parent="DyA_7QYeF1qoG6apN3V6-141">
          <mxGeometry width="30" height="30" as="geometry" />
        </mxCell>
        <mxCell id="DyA_7QYeF1qoG6apN3V6-143" value="ID (auto increment)" style="shape=partialRectangle;connectable=0;top=0;left=0;bottom=0;right=0;align=left;spacingLeft=6;fontStyle=5;overflow=hidden;" vertex="1" parent="DyA_7QYeF1qoG6apN3V6-141">
          <mxGeometry x="30" width="150" height="30" as="geometry" />
        </mxCell>
        <mxCell id="DyA_7QYeF1qoG6apN3V6-144" value="" style="shape=partialRectangle;collapsible=0;dropTarget=0;pointerEvents=0;top=0;left=0;bottom=0;right=0;points=[[0,0.5],[1,0.5]];portConstraint=eastwest;fillColor=none;" vertex="1" parent="DyA_7QYeF1qoG6apN3V6-140">
          <mxGeometry y="60" width="180" height="30" as="geometry" />
        </mxCell>
        <mxCell id="DyA_7QYeF1qoG6apN3V6-145" value="" style="shape=partialRectangle;connectable=0;top=0;left=0;bottom=0;right=0;editable=1;overflow=hidden;fillColor=none;" vertex="1" parent="DyA_7QYeF1qoG6apN3V6-144">
          <mxGeometry width="30" height="30" as="geometry" />
        </mxCell>
        <mxCell id="DyA_7QYeF1qoG6apN3V6-146" value="filename" style="shape=partialRectangle;connectable=0;top=0;left=0;bottom=0;right=0;align=left;spacingLeft=6;overflow=hidden;" vertex="1" parent="DyA_7QYeF1qoG6apN3V6-144">
          <mxGeometry x="30" width="150" height="30" as="geometry" />
        </mxCell>
        <mxCell id="DyA_7QYeF1qoG6apN3V6-147" value="" style="shape=partialRectangle;collapsible=0;dropTarget=0;pointerEvents=0;top=0;left=0;bottom=0;right=0;points=[[0,0.5],[1,0.5]];portConstraint=eastwest;fillColor=none;" vertex="1" parent="DyA_7QYeF1qoG6apN3V6-140">
          <mxGeometry y="90" width="180" height="30" as="geometry" />
        </mxCell>
        <mxCell id="DyA_7QYeF1qoG6apN3V6-148" value="" style="shape=partialRectangle;connectable=0;top=0;left=0;bottom=0;right=0;editable=1;overflow=hidden;fillColor=none;" vertex="1" parent="DyA_7QYeF1qoG6apN3V6-147">
          <mxGeometry width="30" height="30" as="geometry" />
        </mxCell>
        <mxCell id="DyA_7QYeF1qoG6apN3V6-149" value="" style="shape=partialRectangle;connectable=0;top=0;left=0;bottom=0;right=0;align=left;spacingLeft=6;overflow=hidden;fillColor=none;" vertex="1" parent="DyA_7QYeF1qoG6apN3V6-147">
          <mxGeometry x="30" width="150" height="30" as="geometry" />
        </mxCell>
        <mxCell id="DyA_7QYeF1qoG6apN3V6-150" value="" style="shape=partialRectangle;collapsible=0;dropTarget=0;pointerEvents=0;top=0;left=0;bottom=0;right=0;points=[[0,0.5],[1,0.5]];portConstraint=eastwest;fillColor=none;" vertex="1" parent="DyA_7QYeF1qoG6apN3V6-140">
          <mxGeometry y="120" width="180" height="30" as="geometry" />
        </mxCell>
        <mxCell id="DyA_7QYeF1qoG6apN3V6-151" value="" style="shape=partialRectangle;connectable=0;top=0;left=0;bottom=0;right=0;editable=1;overflow=hidden;fillColor=none;" vertex="1" parent="DyA_7QYeF1qoG6apN3V6-150">
          <mxGeometry width="30" height="30" as="geometry" />
        </mxCell>
        <mxCell id="DyA_7QYeF1qoG6apN3V6-152" value="" style="shape=partialRectangle;connectable=0;top=0;left=0;bottom=0;right=0;align=left;spacingLeft=6;overflow=hidden;fillColor=none;" vertex="1" parent="DyA_7QYeF1qoG6apN3V6-150">
          <mxGeometry x="30" width="150" height="30" as="geometry" />
        </mxCell>
        <mxCell id="DyA_7QYeF1qoG6apN3V6-159" value="ext" style="shape=partialRectangle;connectable=0;top=0;left=0;bottom=0;right=0;align=left;spacingLeft=6;overflow=hidden;" vertex="1" parent="DyA_7QYeF1qoG6apN3V6-139">
          <mxGeometry x="30" y="90" width="150" height="30" as="geometry" />
        </mxCell>
        <mxCell id="DyA_7QYeF1qoG6apN3V6-160" value="size" style="shape=partialRectangle;connectable=0;top=0;left=0;bottom=0;right=0;align=left;spacingLeft=6;overflow=hidden;" vertex="1" parent="DyA_7QYeF1qoG6apN3V6-139">
          <mxGeometry x="30" y="120" width="150" height="30" as="geometry" />
        </mxCell>
        <mxCell id="DyA_7QYeF1qoG6apN3V6-161" value="created_at" style="shape=partialRectangle;connectable=0;top=0;left=0;bottom=0;right=0;align=left;spacingLeft=6;overflow=hidden;" vertex="1" parent="DyA_7QYeF1qoG6apN3V6-139">
          <mxGeometry x="30" y="150" width="150" height="30" as="geometry" />
        </mxCell>
        <mxCell id="DyA_7QYeF1qoG6apN3V6-73" value="users_groups" style="shape=table;startSize=30;container=1;collapsible=1;childLayout=tableLayout;fixedRows=1;rowLines=0;fontStyle=1;align=center;resizeLast=1;" vertex="1" parent="1">
          <mxGeometry x="395" y="450" width="180" height="180" as="geometry" />
        </mxCell>
        <mxCell id="DyA_7QYeF1qoG6apN3V6-74" value="" style="shape=partialRectangle;collapsible=0;dropTarget=0;pointerEvents=0;top=0;left=0;bottom=1;right=0;points=[[0,0.5],[1,0.5]];portConstraint=eastwest;fillColor=none;" vertex="1" parent="DyA_7QYeF1qoG6apN3V6-73">
          <mxGeometry y="30" width="180" height="30" as="geometry" />
        </mxCell>
        <mxCell id="DyA_7QYeF1qoG6apN3V6-75" value="PK" style="shape=partialRectangle;connectable=0;top=0;left=0;bottom=0;right=0;fontStyle=1;overflow=hidden;" vertex="1" parent="DyA_7QYeF1qoG6apN3V6-74">
          <mxGeometry width="30" height="30" as="geometry" />
        </mxCell>
        <mxCell id="DyA_7QYeF1qoG6apN3V6-76" value="ID (auto increment)" style="shape=partialRectangle;connectable=0;top=0;left=0;bottom=0;right=0;align=left;spacingLeft=6;fontStyle=5;overflow=hidden;" vertex="1" parent="DyA_7QYeF1qoG6apN3V6-74">
          <mxGeometry x="30" width="150" height="30" as="geometry" />
        </mxCell>
        <mxCell id="DyA_7QYeF1qoG6apN3V6-77" value="" style="shape=partialRectangle;collapsible=0;dropTarget=0;pointerEvents=0;top=0;left=0;bottom=0;right=0;points=[[0,0.5],[1,0.5]];portConstraint=eastwest;fillColor=none;" vertex="1" parent="DyA_7QYeF1qoG6apN3V6-73">
          <mxGeometry y="60" width="180" height="30" as="geometry" />
        </mxCell>
        <mxCell id="DyA_7QYeF1qoG6apN3V6-78" value="" style="shape=partialRectangle;connectable=0;top=0;left=0;bottom=0;right=0;editable=1;overflow=hidden;fillColor=none;" vertex="1" parent="DyA_7QYeF1qoG6apN3V6-77">
          <mxGeometry width="30" height="30" as="geometry" />
        </mxCell>
        <mxCell id="DyA_7QYeF1qoG6apN3V6-79" value="user_id" style="shape=partialRectangle;connectable=0;top=0;left=0;bottom=0;right=0;align=left;spacingLeft=6;overflow=hidden;" vertex="1" parent="DyA_7QYeF1qoG6apN3V6-77">
          <mxGeometry x="30" width="150" height="30" as="geometry" />
        </mxCell>
        <mxCell id="DyA_7QYeF1qoG6apN3V6-80" value="" style="shape=partialRectangle;collapsible=0;dropTarget=0;pointerEvents=0;top=0;left=0;bottom=0;right=0;points=[[0,0.5],[1,0.5]];portConstraint=eastwest;fillColor=none;" vertex="1" parent="DyA_7QYeF1qoG6apN3V6-73">
          <mxGeometry y="90" width="180" height="30" as="geometry" />
        </mxCell>
        <mxCell id="DyA_7QYeF1qoG6apN3V6-81" value="" style="shape=partialRectangle;connectable=0;top=0;left=0;bottom=0;right=0;editable=1;overflow=hidden;fillColor=none;" vertex="1" parent="DyA_7QYeF1qoG6apN3V6-80">
          <mxGeometry width="30" height="30" as="geometry" />
        </mxCell>
        <mxCell id="DyA_7QYeF1qoG6apN3V6-82" value="" style="shape=partialRectangle;connectable=0;top=0;left=0;bottom=0;right=0;align=left;spacingLeft=6;overflow=hidden;fillColor=none;" vertex="1" parent="DyA_7QYeF1qoG6apN3V6-80">
          <mxGeometry x="30" width="150" height="30" as="geometry" />
        </mxCell>
        <mxCell id="DyA_7QYeF1qoG6apN3V6-83" value="" style="shape=partialRectangle;collapsible=0;dropTarget=0;pointerEvents=0;top=0;left=0;bottom=0;right=0;points=[[0,0.5],[1,0.5]];portConstraint=eastwest;fillColor=none;" vertex="1" parent="DyA_7QYeF1qoG6apN3V6-73">
          <mxGeometry y="120" width="180" height="30" as="geometry" />
        </mxCell>
        <mxCell id="DyA_7QYeF1qoG6apN3V6-84" value="" style="shape=partialRectangle;connectable=0;top=0;left=0;bottom=0;right=0;editable=1;overflow=hidden;fillColor=none;" vertex="1" parent="DyA_7QYeF1qoG6apN3V6-83">
          <mxGeometry width="30" height="30" as="geometry" />
        </mxCell>
        <mxCell id="DyA_7QYeF1qoG6apN3V6-85" value="" style="shape=partialRectangle;connectable=0;top=0;left=0;bottom=0;right=0;align=left;spacingLeft=6;overflow=hidden;fillColor=none;" vertex="1" parent="DyA_7QYeF1qoG6apN3V6-83">
          <mxGeometry x="30" width="150" height="30" as="geometry" />
        </mxCell>
        <mxCell id="DyA_7QYeF1qoG6apN3V6-86" value="group_id" style="shape=partialRectangle;connectable=0;top=0;left=0;bottom=0;right=0;align=left;spacingLeft=6;overflow=hidden;" vertex="1" parent="1">
          <mxGeometry x="425" y="540" width="150" height="30" as="geometry" />
        </mxCell>
        <mxCell id="DyA_7QYeF1qoG6apN3V6-87" value="created_at (timestamp)" style="shape=partialRectangle;connectable=0;top=0;left=0;bottom=0;right=0;align=left;spacingLeft=6;overflow=hidden;" vertex="1" parent="1">
          <mxGeometry x="425" y="570" width="150" height="30" as="geometry" />
        </mxCell>
        <mxCell id="DyA_7QYeF1qoG6apN3V6-92" value="FK" style="shape=partialRectangle;connectable=0;top=0;left=0;bottom=0;right=0;fontStyle=1;overflow=hidden;" vertex="1" parent="1">
          <mxGeometry x="395" y="510" width="30" height="30" as="geometry" />
        </mxCell>
        <mxCell id="DyA_7QYeF1qoG6apN3V6-93" value="FK" style="shape=partialRectangle;connectable=0;top=0;left=0;bottom=0;right=0;fontStyle=1;overflow=hidden;strokeWidth=1;" vertex="1" parent="1">
          <mxGeometry x="395" y="540" width="30" height="30" as="geometry" />
        </mxCell>
        <mxCell id="DyA_7QYeF1qoG6apN3V6-94" value="updated_at (timestamp)" style="shape=partialRectangle;connectable=0;top=0;left=0;bottom=0;right=0;align=left;spacingLeft=6;overflow=hidden;" vertex="1" parent="1">
          <mxGeometry x="425" y="600" width="150" height="30" as="geometry" />
        </mxCell>
        <mxCell id="DyA_7QYeF1qoG6apN3V6-184" style="edgeStyle=orthogonalEdgeStyle;rounded=0;orthogonalLoop=1;jettySize=auto;html=1;entryX=0;entryY=0.5;entryDx=0;entryDy=0;" edge="1" parent="1" source="DyA_7QYeF1qoG6apN3V6-98" target="DyA_7QYeF1qoG6apN3V6-129">
          <mxGeometry relative="1" as="geometry" />
        </mxCell>
        <mxCell id="DyA_7QYeF1qoG6apN3V6-186" style="edgeStyle=orthogonalEdgeStyle;rounded=0;orthogonalLoop=1;jettySize=auto;html=1;entryX=0;entryY=0.5;entryDx=0;entryDy=0;" edge="1" parent="1" source="DyA_7QYeF1qoG6apN3V6-2" target="DyA_7QYeF1qoG6apN3V6-123">
          <mxGeometry relative="1" as="geometry">
            <Array as="points">
              <mxPoint x="300" y="295" />
              <mxPoint x="300" y="745" />
            </Array>
          </mxGeometry>
        </mxCell>
        <mxCell id="DyA_7QYeF1qoG6apN3V6-187" style="edgeStyle=orthogonalEdgeStyle;rounded=0;orthogonalLoop=1;jettySize=auto;html=1;entryX=0;entryY=0.5;entryDx=0;entryDy=0;" edge="1" parent="1" source="DyA_7QYeF1qoG6apN3V6-2" target="DyA_7QYeF1qoG6apN3V6-77">
          <mxGeometry relative="1" as="geometry" />
        </mxCell>
        <mxCell id="DyA_7QYeF1qoG6apN3V6-52" value="Groups" style="shape=table;startSize=30;container=1;collapsible=1;childLayout=tableLayout;fixedRows=1;rowLines=0;fontStyle=1;align=center;resizeLast=1;" vertex="1" parent="1">
          <mxGeometry x="640" y="210" width="180" height="210" as="geometry" />
        </mxCell>
        <mxCell id="DyA_7QYeF1qoG6apN3V6-53" value="" style="shape=partialRectangle;collapsible=0;dropTarget=0;pointerEvents=0;top=0;left=0;bottom=1;right=0;points=[[0,0.5],[1,0.5]];portConstraint=eastwest;fillColor=none;" vertex="1" parent="DyA_7QYeF1qoG6apN3V6-52">
          <mxGeometry y="30" width="180" height="30" as="geometry" />
        </mxCell>
        <mxCell id="DyA_7QYeF1qoG6apN3V6-54" value="PK" style="shape=partialRectangle;connectable=0;top=0;left=0;bottom=0;right=0;fontStyle=1;overflow=hidden;" vertex="1" parent="DyA_7QYeF1qoG6apN3V6-53">
          <mxGeometry width="30" height="30" as="geometry" />
        </mxCell>
        <mxCell id="DyA_7QYeF1qoG6apN3V6-55" value="ID (auto increment)" style="shape=partialRectangle;connectable=0;top=0;left=0;bottom=0;right=0;align=left;spacingLeft=6;fontStyle=5;overflow=hidden;" vertex="1" parent="DyA_7QYeF1qoG6apN3V6-53">
          <mxGeometry x="30" width="150" height="30" as="geometry" />
        </mxCell>
        <mxCell id="DyA_7QYeF1qoG6apN3V6-56" value="" style="shape=partialRectangle;collapsible=0;dropTarget=0;pointerEvents=0;top=0;left=0;bottom=0;right=0;points=[[0,0.5],[1,0.5]];portConstraint=eastwest;fillColor=none;" vertex="1" parent="DyA_7QYeF1qoG6apN3V6-52">
          <mxGeometry y="60" width="180" height="30" as="geometry" />
        </mxCell>
        <mxCell id="DyA_7QYeF1qoG6apN3V6-57" value="" style="shape=partialRectangle;connectable=0;top=0;left=0;bottom=0;right=0;editable=1;overflow=hidden;fillColor=none;" vertex="1" parent="DyA_7QYeF1qoG6apN3V6-56">
          <mxGeometry width="30" height="30" as="geometry" />
        </mxCell>
        <mxCell id="DyA_7QYeF1qoG6apN3V6-58" value="name (varchar)" style="shape=partialRectangle;connectable=0;top=0;left=0;bottom=0;right=0;align=left;spacingLeft=6;overflow=hidden;" vertex="1" parent="DyA_7QYeF1qoG6apN3V6-56">
          <mxGeometry x="30" width="150" height="30" as="geometry" />
        </mxCell>
        <mxCell id="DyA_7QYeF1qoG6apN3V6-59" value="" style="shape=partialRectangle;collapsible=0;dropTarget=0;pointerEvents=0;top=0;left=0;bottom=0;right=0;points=[[0,0.5],[1,0.5]];portConstraint=eastwest;fillColor=none;" vertex="1" parent="DyA_7QYeF1qoG6apN3V6-52">
          <mxGeometry y="90" width="180" height="30" as="geometry" />
        </mxCell>
        <mxCell id="DyA_7QYeF1qoG6apN3V6-60" value="" style="shape=partialRectangle;connectable=0;top=0;left=0;bottom=0;right=0;editable=1;overflow=hidden;fillColor=none;" vertex="1" parent="DyA_7QYeF1qoG6apN3V6-59">
          <mxGeometry width="30" height="30" as="geometry" />
        </mxCell>
        <mxCell id="DyA_7QYeF1qoG6apN3V6-61" value="" style="shape=partialRectangle;connectable=0;top=0;left=0;bottom=0;right=0;align=left;spacingLeft=6;overflow=hidden;fillColor=none;" vertex="1" parent="DyA_7QYeF1qoG6apN3V6-59">
          <mxGeometry x="30" width="150" height="30" as="geometry" />
        </mxCell>
        <mxCell id="DyA_7QYeF1qoG6apN3V6-62" value="" style="shape=partialRectangle;collapsible=0;dropTarget=0;pointerEvents=0;top=0;left=0;bottom=0;right=0;points=[[0,0.5],[1,0.5]];portConstraint=eastwest;fillColor=none;" vertex="1" parent="DyA_7QYeF1qoG6apN3V6-52">
          <mxGeometry y="120" width="180" height="30" as="geometry" />
        </mxCell>
        <mxCell id="DyA_7QYeF1qoG6apN3V6-63" value="" style="shape=partialRectangle;connectable=0;top=0;left=0;bottom=0;right=0;editable=1;overflow=hidden;fillColor=none;" vertex="1" parent="DyA_7QYeF1qoG6apN3V6-62">
          <mxGeometry width="30" height="30" as="geometry" />
        </mxCell>
        <mxCell id="DyA_7QYeF1qoG6apN3V6-64" value="" style="shape=partialRectangle;connectable=0;top=0;left=0;bottom=0;right=0;align=left;spacingLeft=6;overflow=hidden;fillColor=none;" vertex="1" parent="DyA_7QYeF1qoG6apN3V6-62">
          <mxGeometry x="30" width="150" height="30" as="geometry" />
        </mxCell>
        <mxCell id="DyA_7QYeF1qoG6apN3V6-67" value="description (varchar)" style="shape=partialRectangle;connectable=0;top=0;left=0;bottom=0;right=0;align=left;spacingLeft=6;overflow=hidden;" vertex="1" parent="1">
          <mxGeometry x="670" y="300" width="150" height="30" as="geometry" />
        </mxCell>
        <mxCell id="DyA_7QYeF1qoG6apN3V6-68" value="image (varchar)" style="shape=partialRectangle;connectable=0;top=0;left=0;bottom=0;right=0;align=left;spacingLeft=6;overflow=hidden;" vertex="1" parent="1">
          <mxGeometry x="670" y="330" width="150" height="30" as="geometry" />
        </mxCell>
        <mxCell id="DyA_7QYeF1qoG6apN3V6-90" value="created_at (timestamp)" style="shape=partialRectangle;connectable=0;top=0;left=0;bottom=0;right=0;align=left;spacingLeft=6;overflow=hidden;" vertex="1" parent="1">
          <mxGeometry x="670" y="360" width="150" height="30" as="geometry" />
        </mxCell>
        <mxCell id="DyA_7QYeF1qoG6apN3V6-91" value="updated_at (timestamp)" style="shape=partialRectangle;connectable=0;top=0;left=0;bottom=0;right=0;align=left;spacingLeft=6;overflow=hidden;" vertex="1" parent="1">
          <mxGeometry x="670" y="390" width="150" height="30" as="geometry" />
        </mxCell>
        <mxCell id="DyA_7QYeF1qoG6apN3V6-188" style="edgeStyle=orthogonalEdgeStyle;rounded=0;orthogonalLoop=1;jettySize=auto;html=1;entryX=1;entryY=0.5;entryDx=0;entryDy=0;" edge="1" parent="1" source="DyA_7QYeF1qoG6apN3V6-53" target="DyA_7QYeF1qoG6apN3V6-80">
          <mxGeometry relative="1" as="geometry" />
        </mxCell>
        <mxCell id="DyA_7QYeF1qoG6apN3V6-189" style="edgeStyle=orthogonalEdgeStyle;rounded=0;orthogonalLoop=1;jettySize=auto;html=1;entryX=1;entryY=0.5;entryDx=0;entryDy=0;" edge="1" parent="1" source="DyA_7QYeF1qoG6apN3V6-53" target="DyA_7QYeF1qoG6apN3V6-126">
          <mxGeometry relative="1" as="geometry">
            <Array as="points">
              <mxPoint x="630" y="255" />
              <mxPoint x="630" y="515" />
              <mxPoint x="715" y="515" />
              <mxPoint x="715" y="775" />
            </Array>
          </mxGeometry>
        </mxCell>
      </root>
    </mxGraphModel>
  </diagram>
</mxfile>
